<svg width="588" height="66" viewBox="0 0 588 66" fill="none" xmlns="http://www.w3.org/2000/svg">
<path d="M573.432 58.1587C573.432 59.6032 573.86 61.0156 574.659 62.2163C575.459 63.4175 576.598 64.3538 577.929 64.9068C579.26 65.4597 580.723 65.604 582.139 65.3221C583.55 65.0406 584.848 64.3448 585.864 63.3232C586.885 62.3021 587.577 61.0005 587.859 59.5834C588.141 58.1667 587.995 56.6982 587.445 55.3636C586.895 54.029 585.958 52.8882 584.764 52.0853C583.564 51.2829 582.158 50.8544 580.713 50.8544C579.759 50.8516 578.808 51.0383 577.924 51.4041C577.04 51.7699 576.235 52.3078 575.558 52.9867C574.881 53.6655 574.344 54.4722 573.977 55.3599C573.615 56.2471 573.427 57.1984 573.432 58.1587ZM519.656 55.812C525.051 61.133 533.777 65.4593 544.657 65.4593C555.627 65.4593 567.316 60.4117 567.316 45.8038C567.316 34.4438 556.794 30.2042 547.174 26.3286C539.257 23.174 532.069 20.1962 532.069 13.7969C532.069 8.65599 536.651 4.32974 543.477 4.32974C549.681 4.32974 553.999 7.57444 560.834 21.4581L565.675 7.03367C560.834 2.70393 554.343 0 545.89 0C532.135 0 522.238 8.5659 522.238 19.1147C522.238 29.6634 531.952 34.1734 541.214 37.9589C549.756 41.4775 558.031 44.8123 558.031 52.0264C558.031 56.8034 553.713 60.5922 546.699 60.5922C538.603 60.5922 532.944 54.64 527.544 41.117L519.656 55.812ZM484.945 64.3778L477.658 57.8848V31.8301L498.525 57.8848L491.239 64.3778H520.389L513.555 58.2488L488.557 27.3963L502.754 14.0673L518.658 1.08157H497.26V12.8922L477.654 31.2892V7.57444L484.935 1.08157H459.038L466.323 7.57444V57.8848L459.038 64.3778H484.945ZM442.229 19.4752C442.229 27.32 435.487 32.461 425.236 32.461H418.761V4.87052H422.547C436.03 4.87052 442.253 12.1711 442.253 19.4752H442.229ZM400.171 1.08157L407.455 7.57444V57.8848L400.171 64.3778H426.069L418.785 57.8848V36.2464H421.482L433.171 52.5671C439.826 61.8538 447.021 65.4593 453.676 65.4593C455.819 65.4593 457.948 65.0934 459.968 64.3778C454.036 62.7552 450.077 59.3302 442.613 47.6063L435.062 35.7958C444.504 34.1734 453.856 27.7707 453.856 16.7713C453.856 8.10485 446.302 1.08157 427.418 1.08157H400.171ZM365.729 65.4593C385.961 65.4593 397.025 48.6877 397.025 32.7313C397.025 16.7747 386.051 0 365.729 0C345.407 0 334.437 16.7713 334.437 32.7313C334.437 48.6915 345.5 65.4593 365.729 65.4593ZM365.729 3.7855C379.212 3.7855 383.265 17.9429 383.265 29.2128V36.2464C383.265 47.6063 379.22 61.6737 365.729 61.6737C352.239 61.6737 348.193 47.6063 348.193 36.2464V29.2128C348.193 17.9429 352.242 3.7855 365.729 3.7855ZM315.819 1.08157L323.193 7.66807L307.435 44.1987L291.608 7.68193L299.072 1.09544H271.825L279.286 7.76858L284.413 19.7595L273.882 44.1987L258.065 7.66458L265.529 1.0781H238.372L245.657 7.571L270.923 65.9967L287.649 27.2264L304.465 65.9967L329.645 7.75816L337.109 1.08504L315.819 1.08157ZM199.1 1.08157L206.475 7.66807L190.712 44.1987L174.885 7.66458L182.349 1.0781H155.102L162.556 7.75472L167.68 19.7455L157.17 44.1987L141.342 7.66458L148.806 1.0781H121.649L128.934 7.571L154.203 65.9967L170.93 27.2264L187.743 65.9967L212.922 7.75816L220.387 1.08504L199.1 1.08157ZM120.75 45.0827L107.443 60.0515H87.477V34.3537H98.8103L106.724 44.8921V17.8528L98.8103 28.4016H87.477V5.41129H107.443L120.75 20.3765V1.08157H68.8628L76.1474 7.57444V57.8848L68.8628 64.3778H120.75V45.0827ZM41.3461 1.08157L50.6809 9.46718V40.3855L17.2486 1.08157H0.162489L9.33476 9.1864V55.985L0 64.3707H25.719L16.3496 55.985V17.4022L57.7129 66V9.46718L67.0649 1.08157H41.3461Z" fill="#FEFDFD"/>
</svg>
