<svg width="294" height="33" viewBox="0 0 294 33" fill="none" xmlns="http://www.w3.org/2000/svg">
<g clip-path="url(#clip0_23_833)">
<path d="M286.241 29.0794C286.241 29.8016 286.454 30.5078 286.852 31.1082C287.251 31.7088 287.818 32.1769 288.482 32.4534C289.145 32.7299 289.874 32.802 290.579 32.661C291.283 32.5203 291.93 32.1724 292.436 31.6616C292.944 31.1511 293.289 30.5003 293.43 29.7917C293.57 29.0834 293.498 28.3491 293.223 27.6818C292.949 27.0145 292.483 26.4441 291.887 26.0427C291.29 25.6415 290.589 25.4272 289.869 25.4272C289.393 25.4258 288.92 25.5191 288.479 25.7021C288.038 25.885 287.638 26.1539 287.3 26.4933C286.963 26.8328 286.695 27.2361 286.513 27.6799C286.332 28.1235 286.238 28.5992 286.241 29.0794ZM259.444 27.906C262.133 30.5665 266.481 32.7296 271.902 32.7296C277.369 32.7296 283.193 30.2058 283.193 22.9019C283.193 17.2219 277.95 15.1021 273.156 13.1643C269.211 11.587 265.63 10.0981 265.63 6.89846C265.63 4.328 267.913 2.16487 271.314 2.16487C274.406 2.16487 276.558 3.78722 279.963 10.729L282.375 3.51683C279.963 1.35196 276.729 0 272.517 0C265.663 0 260.731 4.28295 260.731 9.55734C260.731 14.8317 265.571 17.0867 270.187 18.9795C274.443 20.7387 278.566 22.4062 278.566 26.0132C278.566 28.4017 276.415 30.2961 272.92 30.2961C268.886 30.2961 266.066 27.32 263.375 20.5585L259.444 27.906ZM242.148 32.1889L238.517 28.9424V15.915L248.915 28.9424L245.284 32.1889H259.81L256.404 29.1244L243.948 13.6981L251.022 7.03367L258.947 0.540783H248.284V6.44608L238.514 15.6446V3.78722L242.143 0.540783H229.239L232.868 3.78722V28.9424L229.239 32.1889H242.148ZM220.862 9.73759C220.862 13.66 217.503 16.2305 212.395 16.2305H209.168V2.43526H211.055C217.774 2.43526 220.874 6.08555 220.874 9.73759H220.862ZM199.905 0.540783L203.535 3.78722V28.9424L199.905 32.1889H212.81L209.18 28.9424V18.1232H210.524L216.349 26.2836C219.665 30.9269 223.25 32.7296 226.567 32.7296C227.635 32.7296 228.695 32.5467 229.702 32.1889C226.746 31.3776 224.773 29.6651 221.054 23.8031L217.291 17.8979C221.996 17.0867 226.656 13.8853 226.656 8.38563C226.656 4.05242 222.892 0.540783 213.482 0.540783H199.905ZM182.742 32.7296C192.824 32.7296 198.337 24.3439 198.337 16.3657C198.337 8.38737 192.869 0 182.742 0C172.616 0 167.15 8.38563 167.15 16.3657C167.15 24.3458 172.663 32.7296 182.742 32.7296ZM182.742 1.89275C189.461 1.89275 191.48 8.97147 191.48 14.6064V18.1232C191.48 23.8031 189.465 30.8369 182.742 30.8369C176.02 30.8369 174.005 23.8031 174.005 18.1232V14.6064C174.005 8.97147 176.022 1.89275 182.742 1.89275ZM157.872 0.540783L161.547 3.83403L153.695 22.0994L145.808 3.84096L149.527 0.547718H135.95L139.668 3.88429L142.223 9.87973L136.975 22.0994L129.093 3.83229L132.813 0.539048H119.281L122.91 3.7855L135.501 32.9984L143.835 13.6132L152.215 32.9984L164.762 3.87908L168.481 0.542518L157.872 0.540783ZM99.7114 0.540783L103.386 3.83403L95.5319 22.0994L87.645 3.83229L91.3645 0.539048H77.7873L81.5016 3.87736L84.0547 9.87277L78.8175 22.0994L70.9306 3.83229L74.6501 0.539048H61.1177L64.7476 3.7855L77.3394 32.9984L85.6742 13.6132L94.0521 32.9984L106.599 3.87908L110.319 0.542518L99.7114 0.540783ZM60.6698 22.5414L54.0388 30.0258H44.0897V17.1769H49.7371L53.6804 22.446V8.92641L49.7371 14.2008H44.0897V2.70565H54.0388L60.6698 10.1883V0.540783H34.8143L38.4442 3.78722V28.9424L34.8143 32.1889H60.6698V22.5414ZM21.1027 0.540783L25.7543 4.73359V20.1928L9.09496 0.540783H0.580968L5.1515 4.5932V27.9925L0.5 32.1854H13.3158L8.64702 27.9925V8.70109L29.2583 33V4.73359L33.9184 0.540783H21.1027Z" fill="#1A1A1A"/>
</g>
<defs>
<clipPath id="clip0_23_833">
<rect width="293" height="33" fill="white" transform="translate(0.5)"/>
</clipPath>
</defs>
</svg>
